<?xml version="1.0" encoding="UTF-8" standalone="no"?><svg xmlns="http://www.w3.org/2000/svg" xmlns:xlink="http://www.w3.org/1999/xlink" contentStyleType="text/css" height="230px" preserveAspectRatio="none" style="width:203px;height:230px;background:#FFFFFF;" version="1.1" viewBox="0 0 203 230" width="203px" zoomAndPan="magnify"><defs/><g><!--MD5=[b98e12aca36f7bcd93dbcaa16c71575b]
cluster User device--><g id="cluster_User device"><polygon fill="none" points="16,16,26,6,186,6,186,203,176,213,16,213,16,16" style="stroke:#181818;stroke-width:1.0;"/><line style="stroke:#181818;stroke-width:1.0;" x1="176" x2="186" y1="16" y2="6"/><line style="stroke:#181818;stroke-width:1.0;" x1="16" x2="176" y1="16" y2="16"/><line style="stroke:#181818;stroke-width:1.0;" x1="176" x2="176" y1="16" y2="213"/><text fill="#000000" font-family="sans-serif" font-size="14" font-weight="bold" lengthAdjust="spacing" textLength="94" x="50" y="31.9951">User device</text></g><!--MD5=[1fa691a80730ed4bdf207365bb645012]
entity main_app--><g id="elem_main_app"><rect fill="#F1F1F1" height="46.2969" rx="2.5" ry="2.5" style="stroke:#181818;stroke-width:0.5;" width="106" x="48" y="46"/><rect fill="#F1F1F1" height="10" style="stroke:#181818;stroke-width:0.5;" width="15" x="134" y="51"/><rect fill="#F1F1F1" height="2" style="stroke:#181818;stroke-width:0.5;" width="4" x="132" y="53"/><rect fill="#F1F1F1" height="2" style="stroke:#181818;stroke-width:0.5;" width="4" x="132" y="57"/><text fill="#000000" font-family="sans-serif" font-size="14" lengthAdjust="spacing" textLength="66" x="63" y="78.9951">main_app</text></g><!--MD5=[a3d1329a738a76d28787c4945e9664e6]
entity flower_db--><g id="elem_flower_db"><path d="M58,162 C58,152 101,152 101,152 C101,152 144,152 144,162 L144,187.2969 C144,197.2969 101,197.2969 101,197.2969 C101,197.2969 58,197.2969 58,187.2969 L58,162 " fill="#F1F1F1" style="stroke:#181818;stroke-width:0.5;"/><path d="M58,162 C58,172 101,172 101,172 C101,172 144,172 144,162 " fill="none" style="stroke:#181818;stroke-width:0.5;"/><text fill="#000000" font-family="sans-serif" font-size="14" lengthAdjust="spacing" textLength="66" x="68" y="188.9951">flower_db</text></g><!--MD5=[d23ddfeb0168919fd7bf2ae88d044583]
link main_app to flower_db--><g id="link_main_app_flower_db"><path d="M101,92.2 C101,108.14 101,129.69 101,146.6 " fill="none" id="main_app-to-flower_db" style="stroke:#181818;stroke-width:1.0;stroke-dasharray:7.0,7.0;"/><polygon fill="#181818" points="101,151.69,105,142.69,101,146.69,97,142.69,101,151.69" style="stroke:#181818;stroke-width:1.0;"/></g><!--MD5=[7201effc5015f22cf51a2118f087fe28]
@startuml
node "User device" {
    component main_app
    database flower_db
}

main_app ..> flower_db
@enduml

PlantUML version 1.2022.7(Mon Aug 22 17:01:30 UTC 2022)
(GPL source distribution)
Java Runtime: OpenJDK Runtime Environment
JVM: OpenJDK 64-Bit Server VM
Default Encoding: UTF-8
Language: en
Country: null
--></g></svg>